<svg width="1200" height="320" viewBox="0 0 1200 320" fill="none" xmlns="http://www.w3.org/2000/svg" role="img" aria-labelledby="title desc">
  <title id="title">export</title>
  <desc id="desc">Markdown session export for Codex</desc>
  <defs>
    <linearGradient id="bg" x1="0" y1="0" x2="1200" y2="320" gradientUnits="userSpaceOnUse">
      <stop offset="0" stop-color="#F8FAFC"/>
      <stop offset="0.52" stop-color="#EFF6FF"/>
      <stop offset="1" stop-color="#ECFEFF"/>
    </linearGradient>
    <linearGradient id="accent" x1="320" y1="82" x2="492" y2="238" gradientUnits="userSpaceOnUse">
      <stop offset="0" stop-color="#2563EB"/>
      <stop offset="1" stop-color="#0891B2"/>
    </linearGradient>
    <filter id="shadow" x="250" y="48" width="260" height="224" filterUnits="userSpaceOnUse" color-interpolation-filters="sRGB">
      <feDropShadow dx="0" dy="16" stdDeviation="22" flood-color="#0F172A" flood-opacity="0.14"/>
    </filter>
  </defs>

  <rect width="1200" height="320" rx="34" fill="url(#bg)"/>
  <path d="M132 86H290" stroke="#D7E1EF" stroke-width="2"/>
  <path d="M910 238H1068" stroke="#D7E1EF" stroke-width="2"/>
  <circle cx="185" cy="228" r="52" stroke="#D7E1EF" stroke-width="2"/>
  <circle cx="1010" cy="106" r="38" stroke="#D7E1EF" stroke-width="2"/>

  <g filter="url(#shadow)">
    <rect x="304" y="72" width="142" height="176" rx="22" fill="#FFFFFF" stroke="#CBD5E1"/>
    <path d="M334 114H411" stroke="#64748B" stroke-width="8" stroke-linecap="round"/>
    <path d="M334 146H399" stroke="#94A3B8" stroke-width="8" stroke-linecap="round"/>
    <path d="M334 178H382" stroke="#CBD5E1" stroke-width="8" stroke-linecap="round"/>
    <path d="M334 210H392" stroke="#CBD5E1" stroke-width="8" stroke-linecap="round"/>
    <path d="M426 160H492" stroke="url(#accent)" stroke-width="14" stroke-linecap="round"/>
    <path d="M466 126L506 160L466 194" stroke="url(#accent)" stroke-width="14" stroke-linecap="round" stroke-linejoin="round"/>
    <rect x="510" y="92" width="128" height="136" rx="22" fill="#EFF6FF" stroke="#93C5FD"/>
    <path d="M543 132L554 188" stroke="#2563EB" stroke-width="8" stroke-linecap="round"/>
    <path d="M588 132L599 188" stroke="#0891B2" stroke-width="8" stroke-linecap="round"/>
    <path d="M540 156H609" stroke="#0F172A" stroke-width="8" stroke-linecap="round"/>
  </g>

  <text x="702" y="139" fill="#0F172A" font-family="Inter, ui-sans-serif, system-ui, -apple-system, BlinkMacSystemFont, Segoe UI, sans-serif" font-size="72" font-weight="820" letter-spacing="0">export</text>
  <text x="706" y="188" fill="#475569" font-family="Inter, ui-sans-serif, system-ui, -apple-system, BlinkMacSystemFont, Segoe UI, sans-serif" font-size="25" font-weight="600" letter-spacing="0">LLM-ready Markdown transcripts for Codex sessions</text>
  <rect x="706" y="213" width="278" height="34" rx="17" fill="#E0F2FE" stroke="#BAE6FD"/>
  <text x="845" y="236" text-anchor="middle" fill="#0369A1" font-family="Inter, ui-sans-serif, system-ui, -apple-system, BlinkMacSystemFont, Segoe UI, sans-serif" font-size="15" font-weight="700" letter-spacing="0.8">CODEX SKILL</text>
</svg>
